HIERARCHY
ROOT Hips
{
	OFFSET 0.000000 0.000000 0.000000
	CHANNELS 6 Xposition Yposition Zposition Xrotation Yrotation Zrotation
	JOINT LeftUpLeg_virtual
	{
		OFFSET 0.000000 0.000000 0.000000
		CHANNELS 3 Xrotation Yrotation Zrotation
		JOINT LeftUpLeg
		{
			OFFSET 15.427100 -6.655098 0.678600
			CHANNELS 3 Xrotation Yrotation Zrotation
			JOINT LeftLeg
			{
				OFFSET 4.081073 -39.591068 13.024000
				CHANNELS 3 Xrotation Yrotation Zrotation
				JOINT LeftFoot
				{
					OFFSET -4.081074 -37.707932 -15.979700
					CHANNELS 3 Xrotation Yrotation Zrotation
					JOINT LeftToeBase
					{
						OFFSET 5.346399 -15.068900 20.645000
						CHANNELS 3 Xrotation Yrotation Zrotation
						JOINT LeftToe_End
						{
							OFFSET 2.754700 0.931300 11.300900
							CHANNELS 3 Xrotation Yrotation Zrotation
							End Site
							{
								OFFSET 0 0 0
							}
						}
					}
				}
			}
		}
	}
	JOINT RightUpLeg_virtual
	{
		OFFSET 0.000000 0.000000 0.000000
		CHANNELS 3 Xrotation Yrotation Zrotation
		JOINT RightUpLeg
		{
			OFFSET -15.569500 -6.655098 0.678600
			CHANNELS 3 Xrotation Yrotation Zrotation
			JOINT RightLeg
			{
				OFFSET -4.081825 -39.591045 13.023800
				CHANNELS 3 Xrotation Yrotation Zrotation
				JOINT RightFoot
				{
					OFFSET 4.081824 -37.707954 -15.979600
					CHANNELS 3 Xrotation Yrotation Zrotation
					JOINT RightToeBase
					{
						OFFSET -5.346400 -15.068900 20.645000
						CHANNELS 3 Xrotation Yrotation Zrotation
						JOINT RightToe_End
						{
							OFFSET -2.754700 0.931300 11.300900
							CHANNELS 3 Xrotation Yrotation Zrotation
							End Site
							{
								OFFSET 0 0 0
							}
						}
					}
				}
			}
		}
	}
	JOINT Spine_virtual
	{
		OFFSET 0.000000 0.000000 0.000000
		CHANNELS 3 Xrotation Yrotation Zrotation
		JOINT Spine
		{
			OFFSET -0.279200 12.230698 -2.892100
			CHANNELS 3 Xrotation Yrotation Zrotation
			JOINT Spine1
			{
				OFFSET -0.232667 10.192268 -1.242267
				CHANNELS 3 Xrotation Yrotation Zrotation
				JOINT Spine1_split
				{
					OFFSET -0.232667 10.192268 -1.242267
					CHANNELS 3 Xrotation Yrotation Zrotation
					JOINT Spine2
					{
						OFFSET -0.232667 10.192268 -1.242267
						CHANNELS 3 Xrotation Yrotation Zrotation
						JOINT Neck_virtual
						{
							OFFSET 0.000000 0.000000 0.000000
							CHANNELS 3 Xrotation Yrotation Zrotation
							JOINT Neck
							{
								OFFSET -0.418800 17.814194 8.416900
								CHANNELS 3 Xrotation Yrotation Zrotation
								JOINT Head
								{
									OFFSET 0.000000 7.031097 3.806800
									CHANNELS 3 Xrotation Yrotation Zrotation
									JOINT HeadTop_End
									{
										OFFSET 0.000000 24.646606 12.978600
										CHANNELS 3 Xrotation Yrotation Zrotation
										End Site
										{
											OFFSET 0 0 0
										}
									}
								}
							}
						}
						JOINT LeftShoulder_virtual
						{
							OFFSET 0.000000 0.000000 0.000000
							CHANNELS 3 Xrotation Yrotation Zrotation
							JOINT LeftShoulder
							{
								OFFSET 8.476499 7.247704 -3.868750
								CHANNELS 3 Xrotation Yrotation Zrotation
								JOINT LeftShoulder_split
								{
									OFFSET 8.476499 7.247704 -3.868750
									CHANNELS 3 Xrotation Yrotation Zrotation
									JOINT LeftArm
									{
										OFFSET 9.308998 -2.777710 0.208600
										CHANNELS 3 Xrotation Yrotation Zrotation
										JOINT LeftForeArm
										{
											OFFSET 29.972298 0.000000 0.000000
											CHANNELS 3 Xrotation Yrotation Zrotation
											JOINT LeftHand
											{
												OFFSET 26.026505 0.000000 0.000000
												CHANNELS 3 Xrotation Yrotation Zrotation
												End Site
												{
													OFFSET 0 0 0
												}
											}
										}
									}
								}
							}
						}
						JOINT RightShoulder_virtual
						{
							OFFSET 0.000000 0.000000 0.000000
							CHANNELS 3 Xrotation Yrotation Zrotation
							JOINT RightShoulder
							{
								OFFSET -7.570500 7.247704 -3.868750
								CHANNELS 3 Xrotation Yrotation Zrotation
								JOINT RightShoulder_split
								{
									OFFSET -7.570500 7.247704 -3.868750
									CHANNELS 3 Xrotation Yrotation Zrotation
									JOINT RightArm
									{
										OFFSET -9.308998 -2.777710 0.208500
										CHANNELS 3 Xrotation Yrotation Zrotation
										JOINT RightForeArm
										{
											OFFSET -29.972300 0.000000 0.000000
											CHANNELS 3 Xrotation Yrotation Zrotation
											JOINT RightHand
											{
												OFFSET -26.026505 0.000000 0.000000
												CHANNELS 3 Xrotation Yrotation Zrotation
												End Site
												{
													OFFSET 0 0 0
												}
											}
										}
									}
								}
							}
						}
					}
				}
			}
		}
	}
}
MOTION
Frames: 4
Frame Time: 0.03333333
-0.691270 92.750267 -0.994450 0.000000 0.000000 0.000000 0.767785 -6.123778 0.331415 -12.211131 -4.917192 13.533304 23.818724 2.409911 -0.212887 -3.111805 10.011118 -11.569677 -2.306505 0.560898 -1.647409 0.000000 0.000000 0.000000 1.546002 -5.976402 0.286335 -5.308195 -3.759497 -12.831909 17.765081 3.193237 1.525190 -12.107833 -13.031957 12.013621 3.864394 -0.943756 -0.194021 0.000000 0.000000 0.000000 1.207227 -3.362363 -0.865448 2.726236 -0.556919 1.219404 2.593881 -0.092911 0.209254 0.986732 -0.400066 -0.125096 0.000000 0.000000 0.000000 2.263355 -0.089996 0.110158 -1.395961 0.687873 1.096770 0.965486 1.846764 1.458670 0.000000 0.000000 0.000000 1.794779 0.087166 0.038375 0.563936 9.913156 -11.711798 -1.287295 -1.447166 -0.840931 14.335681 -8.661296 -50.555226 1.381608 -35.441315 1.522796 0.000000 0.000000 0.000000 2.127188 -0.044902 0.131130 1.555501 -7.815009 12.583245 1.177162 1.782900 -2.356207 5.652203 20.638636 60.909291 2.692211 23.989820 1.120077 0.000000 0.000000 0.000000 
-0.888766 92.835114 -1.019501 0.000000 0.000000 0.000000 0.754750 -5.782656 0.698745 -12.279243 -3.442361 12.693058 23.373232 1.825724 -0.290833 -2.953038 8.788935 -11.927674 -2.792170 0.421803 -1.155397 0.000000 0.000000 0.000000 1.389000 -5.844366 0.543910 -5.621958 -4.399674 -13.227805 17.429907 3.031344 1.673462 -12.234443 -12.537259 11.164144 4.750145 -0.963179 0.067721 0.000000 0.000000 0.000000 1.301267 -3.246837 -0.244211 2.778070 -0.735000 1.040582 2.409323 -0.149905 0.162552 0.820386 -0.514796 -0.099523 0.000000 0.000000 0.000000 2.176409 -0.144110 0.080899 -1.071894 0.759581 0.804201 1.335672 2.005588 1.553325 0.000000 0.000000 0.000000 1.737630 0.011873 -0.008101 0.607040 9.732595 -11.653758 -1.385141 -1.245362 -0.850488 13.959374 -9.452636 -50.904201 1.406910 -35.942491 1.585144 0.000000 0.000000 0.000000 2.080732 -0.114428 0.134491 1.631881 -7.818661 12.553728 1.058972 1.777962 -2.666315 5.415191 20.820536 60.787557 2.622366 25.060348 1.144993 0.000000 0.000000 0.000000 
-1.231150 92.943329 -1.232582 0.000000 0.000000 0.000000 0.728960 -5.427064 1.548919 -11.517103 -1.302379 10.965919 21.887993 1.381823 -0.527300 -3.335486 7.117197 -11.885539 -4.394075 0.212150 -0.314004 0.000000 0.000000 0.000000 1.265229 -5.567939 1.276505 -6.874462 -5.091663 -13.924696 18.406825 2.890013 1.863221 -12.194839 -11.580714 9.561889 3.876628 -0.872449 0.274444 0.000000 0.000000 0.000000 1.348488 -3.275778 0.742953 2.920668 -1.162591 0.556464 2.094453 -0.275006 0.049458 0.791844 -0.427170 -0.065133 0.000000 0.000000 0.000000 1.864258 -0.241654 0.002131 -0.733941 0.756137 0.503363 2.226183 2.128087 1.741291 0.000000 0.000000 0.000000 1.497746 -0.121376 -0.080078 0.606618 9.280484 -11.541164 -1.293202 -0.856958 -0.828467 13.941309 -10.635434 -51.277191 1.157770 -36.445466 1.403096 0.000000 0.000000 0.000000 1.840579 -0.245156 0.105177 1.680017 -7.642777 12.494072 1.044212 1.751276 -2.903590 5.343712 21.094312 60.653350 2.446383 26.396875 1.156912 0.000000 0.000000 0.000000 
-1.575889 92.863274 -1.432346 0.000000 0.000000 0.000000 0.654701 -5.261267 2.613733 -10.125954 1.377885 8.806445 19.817365 1.539467 -0.925554 -4.738679 5.650855 -10.785465 -4.550986 0.058862 0.019230 0.000000 0.000000 0.000000 1.139081 -5.285609 2.279175 -9.020590 -5.694633 -14.631995 20.785553 2.841899 2.058908 -11.813184 -10.329097 7.410976 0.969320 -0.757238 0.449342 0.000000 0.000000 0.000000 1.332278 -3.800750 1.822240 3.203419 -1.769207 -0.165289 1.699156 -0.448506 -0.083533 0.812615 -0.318206 -0.013149 0.000000 0.000000 0.000000 1.428388 -0.358626 -0.093838 -0.441575 0.687679 0.272117 3.565452 2.259008 1.964148 0.000000 0.000000 0.000000 1.138063 -0.281192 -0.148322 0.558702 8.591703 -11.376614 -1.138094 -0.339351 -0.705380 14.243389 -12.011794 -51.649699 0.722734 -36.813681 1.041681 0.000000 0.000000 0.000000 1.470302 -0.403498 0.064125 1.684225 -7.276219 12.510205 1.046349 1.679897 -2.954303 5.450711 21.447356 60.442639 2.235547 27.616470 1.115601 0.000000 0.000000 0.000000 
